<?xml version="1.0" encoding="UTF-8"?>
<svg width="430px" height="430px" viewBox="0 0 430 430" version="1.1" xmlns="http://www.w3.org/2000/svg" xmlns:xlink="http://www.w3.org/1999/xlink">
    <title>CoinWatchDog</title>
    <g id="coinWatchDog" stroke="none" fill="none" fill-rule="evenodd">
        <circle id="coin" stroke="currentColor" stroke-width="14" cx="215" cy="215" r="196"></circle>
        <path d="M110.421125,106 L111,107.546 L112.545927,110.918042 L164.175,223.651 L206.962,180.034 L206.928932,180 L210.456,176.471 L213.932013,172.929259 L213.965,172.962 L214,172.928932 L217.527,176.456 L221.070741,179.932012 L221.037,179.966 L265.676,224.605 L318.472017,111.879299 L320,108.616 L320.647403,107 L330,107 L330,293 L320.07,293 L320,293.071068 L316.464466,289.535534 L289.929,263 L258.735,263 L220.037,345.625 L214.536031,357.627885 L214.477,357.498 L214.407282,357.648684 L209.665403,345.578 L171.199,263 L139.584,263 L114.569365,288.501376 L111.067988,292.070741 L110.996,292 L101,292 L101,106 L110.421125,106 Z M247.694,263 L182.196,263 L214.578,333.706 L247.694,263 Z M320,132.191 L273.196,232.125 L320,278.929 L320,132.191 Z M111,131.556 L111,277.859 L156.678,231.294 L111,131.556 Z M161.137,241.029 L149.394,253 L166.619,253 L161.137,241.029 Z M214.034,187.105 L168.633,233.387 L177.616,253 L252.377,253 L261.165,234.236 L214.034,187.105 Z M268.685,241.756 L263.419,253 L279.929,253 L268.685,241.756 Z" id="Combined-Shape" stroke="currentColor" stroke-width="4" fill="currentColor" fill-rule="nonzero"></path>
    </g>
</svg>